# xmcd CD database file
#
# Track frame offsets:
#	150
#	14747
#	29916
#	46113
#	61484
#	73261
#	91930
#	105845
#	130791
#	147887
#	164857
#
# Disc length: 2415 seconds
#
# Revision: 0
# Processed by: cddbd v1.5.1PL2 Copyright (c) Steve Scherf et al.
# Submitted via: CDex 1.51
#
DISCID=9f096d0b
DTITLE=Thomm Jutz - Second Thoughts
DYEAR=2006
DGENRE=Country
TTITLE0=Being Your Man
TTITLE1=Learning How To Live
TTITLE2=One Way Mind
TTITLE3=The Greatest Gift
TTITLE4=Since I Became Your Man
TTITLE5=Jump The Fence
TTITLE6=My Sweet Melancholy
TTITLE7=Begins Now
TTITLE8=Had To Be
TTITLE9=That Night
TTITLE10=Places And Faces
EXTD=YEAR: 2006
EXTT0=
EXTT1=
EXTT2=
EXTT3=
EXTT4=
EXTT5=
EXTT6=
EXTT7=
EXTT8=
EXTT9=
EXTT10=
PLAYORDER=
